<?xml version="1.0" encoding="utf-8"?>
<!-- Generator: Adobe Illustrator 16.0.0, SVG Export Plug-In . SVG Version: 6.00 Build 0)  -->
<!DOCTYPE svg PUBLIC "-//W3C//DTD SVG 1.1//EN" "http://www.w3.org/Graphics/SVG/1.1/DTD/svg11.dtd">
<svg version="1.1" id="Layer_1" xmlns="http://www.w3.org/2000/svg" xmlns:xlink="http://www.w3.org/1999/xlink" x="0px" y="0px"
	 width="612px" height="616px" viewBox="0 0 612 616" enable-background="new 0 0 612 616" xml:space="preserve">
<g id="layer1">
	<path id="path1881" fill="#010101" d="M5.724,609.814c-1.716-1.717-1.716-601.484,0-603.2c1.716-1.716,598.54-1.716,600.255,0
		c1.716,1.716,1.716,601.483,0,603.2C604.264,611.53,7.439,611.53,5.724,609.814z M154.475,571.939
		c0.169-22.088-0.095-34.316-0.77-35.579c-0.992-1.854-2.276-1.922-35.639-1.922c-25.611,0-34.917,0.305-35.789,1.177
		c-0.871,0.871-1.178,10.041-1.178,35.169c0,18.695,0.3,34.29,0.667,34.658c0.366,0.365,16.818,0.549,36.558,0.408l35.893-0.257
		L154.475,571.939z M304.379,570.262v-35.334h-36.805H230.77l-0.258,35.59l-0.258,35.59l37.063-0.258l37.062-0.257v-35.331H304.379z
		 M455.781,571.939c0.169-22.088-0.096-34.316-0.771-35.579c-0.993-1.854-2.282-1.922-36.621-1.922
		c-26.375,0-35.897,0.304-36.77,1.177c-0.871,0.871-1.178,10.041-1.178,35.169c0,18.695,0.299,34.29,0.665,34.657
		c0.367,0.366,17.26,0.55,37.542,0.409l36.873-0.257L455.781,571.939z M602.999,571.359c0.185-24.632-0.058-34.615-0.867-35.59
		c-0.925-1.115-7.239-1.311-35.591-1.099l-34.465,0.257l-0.259,35.591l-0.257,35.59l35.59-0.258l35.589-0.258L602.999,571.359z
		 M78.565,532.86c1.377-0.528,1.552-4.734,1.552-37.295v-36.699H44.891c-31.217,0-35.295,0.177-35.822,1.554
		c-0.328,0.853-0.597,17.105-0.597,36.116c0,25.575,0.307,34.871,1.178,35.742c0.869,0.87,9.84,1.179,34.271,1.179
		C62.121,533.457,77.711,533.188,78.565,532.86z M228.634,532.229c1.533-1.124,1.651-4.243,1.415-37.05l-0.26-35.822l-36.248-0.257
		c-28.347-0.202-36.419,0.011-37.035,0.979c-0.433,0.684-0.793,16.776-0.802,35.766c-0.013,30.092,0.183,34.724,1.527,36.068
		c1.343,1.343,5.95,1.543,35.635,1.543C218.594,533.457,227.371,533.155,228.634,532.229z M377.908,532.86
		c1.377-0.528,1.553-4.735,1.553-37.307v-36.712l-36.561,0.259l-36.558,0.257l-0.258,36.247
		c-0.202,28.348,0.012,36.421,0.981,37.036C308.495,533.548,375.572,533.757,377.908,532.86z M528.958,532.229
		c1.533-1.124,1.651-4.243,1.414-37.05l-0.259-35.822l-36.739-0.257c-28.739-0.202-36.91,0.011-37.525,0.979
		c-0.433,0.684-0.793,16.776-0.802,35.766c-0.013,30.092,0.184,34.724,1.527,36.068c1.343,1.344,5.993,1.543,36.126,1.543
		C518.82,533.457,527.693,533.156,528.958,532.229z M154.112,456.333c0.328-0.854,0.596-16.943,0.596-35.754
		c0-29.782-0.199-34.398-1.542-35.742c-1.342-1.341-5.885-1.542-34.906-1.542c-21.122,0-34.061,0.373-35.262,1.016
		c-1.823,0.976-1.899,2.423-1.899,36.641c0,19.593,0.294,35.919,0.655,36.278c0.359,0.359,16.653,0.654,36.208,0.654
		C149.477,457.885,153.584,457.709,154.112,456.333z M304.636,421.146c0.202-28.346-0.012-36.419-0.98-37.033
		c-1.43-0.908-69.488-1.119-71.824-0.223c-1.376,0.529-1.552,4.737-1.552,37.307v36.712l37.05-0.257l37.049-0.258L304.636,421.146z
		 M455.417,456.333c0.328-0.854,0.597-16.943,0.597-35.754c0-29.782-0.2-34.398-1.543-35.742c-1.343-1.344-5.972-1.542-35.886-1.542
		c-21.8,0-35.04,0.371-36.244,1.016c-1.824,0.976-1.899,2.423-1.899,36.641c0,19.593,0.295,35.919,0.655,36.278
		c0.359,0.359,17.096,0.654,37.188,0.654C450.697,457.885,454.889,457.709,455.417,456.333z M602.635,456.333
		c0.328-0.854,0.598-17.106,0.598-36.117c0-25.575-0.308-34.873-1.179-35.744c-0.871-0.87-9.841-1.177-34.271-1.177
		c-18.201,0-33.791,0.268-34.646,0.595c-1.376,0.53-1.552,4.737-1.552,37.296v36.7h35.228
		C598.029,457.885,602.107,457.709,602.635,456.333z M79.626,345.018v-36.805l-34.234-0.259
		c-24.449-0.184-34.618,0.061-35.577,0.856c-1.851,1.536-1.997,70.494-0.153,72.337c0.897,0.896,9.652,1.125,35.578,0.932
		l34.387-0.258L79.626,345.018L79.626,345.018z M229.19,380.971c0.797-0.96,1.041-11.512,0.856-37.05l-0.258-35.708l-35.822-0.26
		c-32.807-0.237-35.926-0.118-37.049,1.415c-1.584,2.16-1.779,68.117-0.211,71.046c0.976,1.822,2.419,1.898,36.194,1.898
		C221.457,382.313,228.286,382.06,229.19,380.971z M378.97,345.018v-36.805h-36.313h-36.313l-0.258,35.819
		c-0.143,19.7-0.045,36.378,0.219,37.062c0.376,0.979,8.158,1.188,36.571,0.985l36.095-0.258V345.018z M529.426,381.135
		c1.688-1.688,1.688-70.546,0-72.234c-0.873-0.874-10.487-1.178-37.181-1.178h-36.002l-0.593,2.208
		c-1.06,3.95-0.695,68.442,0.396,70.484c0.977,1.823,2.424,1.898,36.608,1.898C519.03,382.313,528.553,382.007,529.426,381.135z
		 M153.166,306.181c1.343-1.344,1.54-5.978,1.527-36.068c-0.009-18.99-0.369-35.083-0.802-35.766
		c-0.615-0.969-8.59-1.183-36.544-0.981l-35.758,0.258l-0.259,35.823c-0.238,32.807-0.118,35.925,1.415,37.05
		c1.262,0.924,9.941,1.227,35.276,1.227C147.26,307.723,151.824,307.522,153.166,306.181z M303.656,306.906
		c0.969-0.615,1.183-8.688,0.98-37.034l-0.257-36.249h-36.806H230.77l-0.259,36.249c-0.201,28.346,0.013,36.419,0.982,37.034
		C233.112,307.934,302.037,307.934,303.656,306.906z M454.471,306.181c1.344-1.344,1.54-5.978,1.527-36.068
		c-0.009-18.99-0.369-35.083-0.802-35.766c-0.615-0.969-8.785-1.183-37.525-0.98l-36.739,0.257l-0.259,35.823
		c-0.237,32.807-0.117,35.925,1.414,37.05c1.264,0.926,10.138,1.227,36.259,1.227C448.476,307.723,453.126,307.525,454.471,306.181z
		 M602.053,306.545c1.366-1.365,1.71-70.074,0.36-72.198c-0.613-0.969-8.395-1.183-35.562-0.981l-34.775,0.259l-0.259,36.248
		c-0.201,28.347,0.013,36.419,0.981,37.035C534.922,308.254,600.688,307.911,602.053,306.545z M79.884,195.102l-0.258-36.068
		l-34.775-0.258c-27.168-0.201-34.948,0.013-35.563,0.981c-0.908,1.431-1.117,67.526-0.221,69.861
		c0.527,1.376,4.606,1.553,35.835,1.553h35.239L79.884,195.102z M229.788,194.856v-35.823l-36.248-0.258
		c-28.347-0.201-36.419,0.013-37.035,0.981c-0.911,1.435-1.116,67.53-0.217,69.873c0.537,1.398,4.451,1.537,37.049,1.307
		l36.45-0.258V194.856z M379.227,195.102l-0.258-36.068h-36.313h-36.313l-0.258,34.835c-0.143,19.161-0.045,35.391,0.213,36.069
		c0.369,0.957,8.569,1.232,36.831,1.232h36.356L379.227,195.102z M530.113,194.856v-35.823l-36.739-0.258
		c-28.739-0.201-36.91,0.013-37.525,0.982c-0.911,1.434-1.115,67.53-0.217,69.872c0.537,1.399,4.494,1.536,37.541,1.306l36.94-0.257
		V194.856L530.113,194.856z M153.53,155.402c0.871-0.871,1.178-10.061,1.178-35.262c0-29.677-0.2-34.285-1.542-35.627
		c-1.342-1.341-5.885-1.542-34.906-1.542c-21.122,0-34.061,0.373-35.262,1.016c-1.823,0.976-1.899,2.419-1.899,36.15
		c0,19.324,0.294,35.429,0.655,35.789c0.359,0.36,16.392,0.655,35.626,0.655C143.272,156.58,152.658,156.274,153.53,155.402z
		 M304.636,120.332c0.202-27.954-0.012-35.928-0.98-36.544c-1.43-0.907-69.488-1.117-71.824-0.22
		c-1.375,0.527-1.552,4.634-1.552,36.15c0,19.555,0.3,35.854,0.666,36.22c0.367,0.367,17.039,0.551,37.05,0.409l36.384-0.257
		L304.636,120.332z M455.417,155.027c0.328-0.854,0.597-16.722,0.597-35.262c0-29.336-0.2-33.91-1.543-35.252
		c-1.343-1.343-5.972-1.542-35.886-1.542c-21.8,0-35.04,0.371-36.244,1.016c-1.823,0.976-1.899,2.419-1.899,36.15
		c0,19.324,0.295,35.429,0.655,35.789c0.359,0.36,17.096,0.655,37.188,0.655C450.697,156.58,454.889,156.404,455.417,155.027z
		 M602.635,155.027c0.328-0.854,0.598-16.886,0.598-35.627c0-25.193-0.309-34.381-1.179-35.253
		c-0.871-0.869-9.841-1.177-34.271-1.177c-18.201,0-33.791,0.268-34.646,0.596c-1.375,0.527-1.552,4.634-1.552,36.15
		c0,19.555,0.295,35.849,0.653,36.208c0.361,0.36,16.213,0.655,35.229,0.655C598.087,156.58,602.107,156.402,602.635,155.027z
		 M79.885,45.908l0.257-35.589l-35.589,0.258l-35.59,0.257L8.705,45.069C8.519,69.699,8.762,79.684,9.57,80.658
		c0.925,1.115,7.24,1.31,35.59,1.098l34.466-0.258L79.885,45.908z M229.191,80.646c0.796-0.959,1.042-11.128,0.856-35.577
		l-0.259-34.235h-36.804h-36.806l-0.257,33.655c-0.17,22.086,0.095,34.316,0.771,35.577c0.992,1.854,2.279,1.923,36.206,1.923
		C221.465,81.989,228.286,81.736,229.191,80.646z M379.227,45.909l0.258-35.589l-36.571,0.258l-36.571,0.257l-0.258,34.345
		c-0.143,18.891-0.043,34.905,0.219,35.589c0.375,0.98,8.139,1.189,36.572,0.987l36.094-0.257L379.227,45.909z M529.515,80.646
		c0.797-0.959,1.04-11.128,0.856-35.577l-0.258-34.235h-37.296h-37.295l-0.258,33.655c-0.17,22.086,0.095,34.316,0.77,35.577
		c0.993,1.855,2.282,1.923,36.698,1.923C521.713,81.989,528.609,81.737,529.515,80.646z"/>
</g>
</svg>
